<svg xmlns="http://www.w3.org/2000/svg" viewBox="0 0 64 64" fill="none">
  <circle cx="32" cy="32" r="32" fill="#A78BFA"/>
  <!-- Left Ear -->
  <path d="M20 28 C 10 16, 14 6, 24 14 C 30 18, 26 24, 20 28" fill="#FFFDF9" stroke="#E5E0D8" stroke-width="1"/>
  <path d="M20 26 C 13 17, 16 9, 23 15 C 27 18, 24 23, 20 26" fill="#EDE9FE"/>
  <!-- Right Ear -->
  <path d="M44 28 C 54 16, 50 6, 40 14 C 34 18, 38 24, 44 28" fill="#FFFDF9" stroke="#E5E0D8" stroke-width="1"/>
  <path d="M44 26 C 51 17, 48 9, 41 15 C 37 18, 40 23, 44 26" fill="#EDE9FE"/>
  <!-- Body -->
  <path d="M14 38 C 14 24, 50 24, 50 38 C 50 52, 42 55, 32 55 C 22 55, 14 52, 14 38 Z" fill="#FFFDF9" stroke="#E5E0D8" stroke-width="1.5"/>
  <!-- Eyes -->
  <circle cx="26" cy="37" r="2" fill="#4B5563"/>
  <circle cx="38" cy="37" r="2" fill="#4B5563"/>
  <!-- Mouth -->
  <path d="M29 42 Q 32 45 35 42" fill="none" stroke="#4B5563" stroke-width="1.2" stroke-linecap="round"/>
  <!-- Cheeks -->
  <circle cx="22" cy="40" r="3" fill="#EEDCF0" opacity="0.6"/>
  <circle cx="42" cy="40" r="3" fill="#EEDCF0" opacity="0.6"/>
</svg>
